Coordinates
version=1
nRows=14
nColumns=24
inDegrees=yes

Units are S.I. units (second, meters, Newtons, ...)
Angles are in degrees.

endheader
time	pelvis_tilt	pelvis_list	pelvis_rotation	pelvis_tx	pelvis_ty	pelvis_tz	hip_flexion_r	hip_adduction_r	hip_rotation_r	knee_angle_r	ankle_angle_r	subtalar_angle_r	mtp_angle_r	hip_flexion_l	hip_adduction_l	hip_rotation_l	knee_angle_l	ankle_angle_l	subtalar_angle_l	mtp_angle_l	lumbar_extension	lumbar_bending	lumbar_rotation
      0.95816667	      3.83139402	      1.72620926	     -4.52989125	     -0.17940822	      1.01306032	      0.26876545	    -14.61677189	      1.29522532	      3.43671249	     -9.36076299	     14.06148131	    -12.27335882	      7.42625119	     16.09566259	      0.99295595	     -7.85109274	     -2.20813432	      1.71378555	     -6.42442564	      2.32786351	     -7.49430647	     -1.91468123	     12.81381204
      0.96233333	      3.87911621	      1.75226205	     -4.55342013	     -0.17367106	      1.01258233	      0.26838276	    -14.73711840	      1.22816710	      3.38422126	     -9.93650529	     14.22500748	    -12.18602865	      7.33266491	     15.90928229	      1.10320491	     -7.67223435	     -1.92812363	      1.71216943	     -6.49733588	      2.38823205	     -7.51273791	     -1.97177008	     12.83092938
      0.96650000	      3.95514730	      1.79226046	     -4.56673523	     -0.16790173	      1.01217692	      0.26796657	    -14.87526398	      1.14298675	      3.29596451	    -10.53882362	     14.36271310	    -12.10407642	      7.23737684	     15.70127547	      1.23372269	     -7.47335249	     -1.74653891	      1.69727698	     -6.59432416	      2.46350903	     -7.54908125	     -2.03046498	     12.83774954
      0.97066667	      3.98721346	      1.83606879	     -4.57346964	     -0.16211853	      1.01175466	      0.26757374	    -14.95350534	      1.06578734	      3.26480174	    -11.16685852	     14.44532808	    -12.16043417	      7.20666203	     15.57564090	      1.35579298	     -7.29760917	     -1.71801034	      1.70815503	     -6.60443089	      2.49616942	     -7.53736873	     -2.10263390	     12.83754439
      0.97483333	      4.04947408	      1.90087604	     -4.59441437	     -0.15631806	      1.01140263	      0.26715479	    -15.02079747	      0.94738527	      3.15714190	    -11.88083676	     14.59758141	    -11.93938365	      7.15254635	     15.39053453	      1.51000366	     -7.01869830	     -1.70254106	      1.62850907	     -6.79329116	      2.57633842	     -7.56780003	     -2.21102403	     12.84385308
      0.97900000	      4.09716929	      1.96225493	     -4.60853770	     -0.15047657	      1.01108103	      0.26671482	    -15.05320659	      0.83270565	      3.02199661	    -12.63207474	     14.65958675	    -11.77760362	      7.10040806	     15.22660667	      1.66057725	     -6.72715165	     -1.76743864	      1.53341545	     -7.00523976	      2.68735064	     -7.54994270	     -2.28656358	     12.83895679
      0.98316667	      4.15983537	      2.03520257	     -4.61761695	     -0.14462796	      1.01080775	      0.26627539	    -15.08503680	      0.70691289	      2.90625320	    -13.41587715	     14.70079302	    -11.64380532	      7.06955895	     15.06495794	      1.82163222	     -6.43728597	     -1.93181212	      1.43067994	     -7.19062118	      2.81168476	     -7.56142242	     -2.38993171	     12.83140534
      0.98733333	      4.19201229	      2.10956231	     -4.62097708	     -0.13876881	      1.01052714	      0.26581488	    -15.05451289	      0.58058324	      2.78007092	    -14.25731354	     14.71073166	    -11.49491387	      7.06432884	     14.95015325	      1.98240013	     -6.13208940	     -2.17795587	      1.30729418	     -7.39218874	      2.94838262	     -7.53784195	     -2.49362821	     12.81616154
      0.99150000	      4.23718924	      2.19902487	     -4.61472518	     -0.13289248	      1.01029040	      0.26536562	    -15.02478207	      0.44357446	      2.67064199	    -15.12404231	     14.68650540	    -11.40180623	      7.08050146	     14.84008300	      2.15720945	     -5.83954953	     -2.51130762	      1.19337671	     -7.55321513	      3.05171237	     -7.53459493	     -2.63816710	     12.80446871
      0.99566667	      4.28912098	      2.27383028	     -4.61931071	     -0.12701262	      1.01010443	      0.26486658	    -14.95233984	      0.30274416	      2.48692390	    -16.08356375	     14.62379722	    -11.15614616	      7.14812382	     14.70502081	      2.32255042	     -5.50922044	     -2.84640863	      0.98912395	     -7.84549999	      3.24106273	     -7.52375878	     -2.72603194	     12.77613015
      0.99983333	      4.34308168	      2.37577753	     -4.62284600	     -0.12110349	      1.00994842	      0.26438233	    -14.85874058	      0.13506262	      2.31852555	    -17.08932679	     14.54557428	    -10.97052686	      7.24144408	     14.57630611	      2.51330481	     -5.19785770	     -3.23537916	      0.82327338	     -8.07164308	      3.40936206	     -7.51005604	     -2.86478623	     12.74963850
      1.00400000	      4.38253641	      2.45916118	     -4.61445431	     -0.11520334	      1.00980465	      0.26388341	    -14.72951255	     -0.00826898	      2.16704333	    -18.12257818	     14.35042217	    -10.87212532	      9.59596974	     14.48076162	      2.68166303	     -4.89108862	     -3.68600699	      0.60706142	     -8.36159653	      6.56871397	     -7.48957959	     -2.98523407	     12.72145241
      1.00816667	      4.44044134	      2.56866607	     -4.61740004	     -0.10928033	      1.00971576	      0.26337842	    -14.57574568	     -0.19312676	      1.97427851	    -19.24188164	     14.17397333	    -10.65628236	      9.63390378	     14.36575654	      2.87479844	     -4.64964113	     -4.16285189	      0.41802714	     -8.52100156	      6.58162989	     -7.47718504	     -3.13708311	     12.68587666
      1.01233333	      4.45780967	      2.66336191	     -4.60756763	     -0.10336848	      1.00959916	      0.26285327	    -14.34632091	     -0.35708032	      1.78578754	    -20.41677142	     13.94264900	    -10.45802858	      9.70800465	     14.30549918	      3.05031762	     -4.38063026	     -4.68341471	      0.23549461	     -8.73806054	      6.60100644	     -7.42449048	     -3.26638692	     12.64455679
